<svg width="20" height="12" viewBox="0 0 20 12" fill="none" xmlns="http://www.w3.org/2000/svg">
    <path fill-rule="evenodd" clip-rule="evenodd"
          d="M10 10.6667C6.4038 10.6667 3.37269 8.82912 1.46163 6.00001C3.37269 3.17088 6.4038 1.33333 10 1.33333C13.5961 1.33333 16.6273 3.17088 18.5384 6.00001C16.6273 8.82911 13.5961 10.6667 10 10.6667ZM10 0C5.74381 0 2.20852 2.27517 0.101334 5.64668C-0.0337784 5.86287 -0.0337779 6.13717 0.101335 6.35335C2.20852 9.7248 5.74381 12 10 12C14.2561 12 17.7915 9.7248 19.8987 6.35335C20.0337 6.13717 20.0337 5.86287 19.8987 5.64668C17.7915 2.27517 14.2561 0 10 0ZM10 8.66667C11.4728 8.66667 12.6667 7.47276 12.6667 6C12.6667 4.52724 11.4728 3.33333 10 3.33333C8.52724 3.33333 7.33333 4.52724 7.33333 6C7.33333 7.47276 8.52724 8.66667 10 8.66667Z"
          fill="#211C1C"/>
</svg>