<svg viewBox="0 0 12 14" xmlns="http://www.w3.org/2000/svg">
    <path fill-rule="evenodd" clip-rule="evenodd" d="M1.73336 1.13333C1.43881 1.13333 1.20003 1.37212 1.20003 1.66667V12.3333C1.20003
 12.6278 1.43881 12.8667 1.73336 12.8667H10.2667C10.5612 12.8667 10.8 12.6278 10.8 12.3333V4.02092L7.91244 1.13333H1.73336ZM0.133362
  1.66667C0.133362 0.783007 0.849703 0.0666656 1.73336 0.0666656H8.13336C8.27481 0.0666656 8.41047 0.122858 8.51048 0.222879L11.6323
   3.34477C11.7824 3.4948 11.8667 3.69828 11.8667 3.91045V12.3333C11.8667 13.217 11.1503 13.9333 10.2667 13.9333H1.73336C0.849703
    13.9333 0.133362 13.217 0.133362 12.3333V1.66667ZM3.0667 7C3.0667 6.70545 3.30548 6.46667 3.60003 6.46667H5.4667V4.6C5.4667
     4.30545 5.70548 4.06667 6.00003 4.06667C6.29458 4.06667 6.53336 4.30545 6.53336 4.6V6.46667H8.40003C8.69454 6.46667
      8.93336 6.70545 8.93336 7C8.93336 7.29455 8.69454 7.53333 8.40003 7.53333H6.53336V9.4C6.53336 9.69451 6.29458 9.93333
       6.00003 9.93333C5.70548 9.93333 5.4667 9.69451 5.4667 9.4V7.53333H3.60003C3.30548 7.53333 3.0667 7.29455 3.0667 7Z"/>
</svg>
