<svg viewBox="0 0 17 17">
    <path d="M8.50003 0.000976562C3.81297 0.000976562 0 3.81419 0 8.50125C0.000394514 13.1878 3.81353 17.0008 8.50003
    17.0008C13.1869 17.0008 17.0001 13.1879 17.0001 8.50117C17 3.81419 13.1869 0.000976562 8.50003 0.000976562ZM8.50003
    1.18452C10.2375 1.18452 11.8352 1.79373 13.0915 2.80928L2.80838 13.0924C1.79299 11.8361 1.1837 10.2385 1.18354 8.50117C1.18354
     4.4668 4.46574 1.18452 8.50003 1.18452ZM8.50003 15.8173C6.62862 15.8173 4.91935 15.1106 3.62408 13.9506L13.9497
     3.62498C15.1098 4.92025 15.8164 6.62968 15.8164 8.50125C15.8164 12.5353 12.5342 15.8173 8.50003 15.8173Z"/>
</svg>
