<svg viewBox="0 0 22 21">
    <path d="M17.77 0H3.77785C1.69471 0 0 1.69477 0 3.77791V12.4083C0 14.4915 1.69471 16.1862 3.77785 16.1862L12.6901 16.1863L16.9564 20.4525C17.101 20.5972 17.2942 20.6739 17.4909 20.6739C17.5882 20.6739 17.6864 20.655 17.7798 20.6163C18.0622 20.4993 18.2463 20.224 18.2463 19.9183V16.1563C20.1055 15.9215 21.5479 14.3302 21.5479 12.4083V3.77791C21.5479 1.69477 19.8532 0 17.77 0ZM20.0368 12.4084C20.0368 13.6583 19.0199 14.6751 17.77 14.6751H17.4907C17.0735 14.6751 16.7352 15.0135 16.7352 15.4307V18.0942L13.5374 14.8964C13.3957 14.7547 13.2036 14.6751 13.0031 14.6751H3.77785C2.52796 14.6751 1.51114 13.6583 1.51114 12.4084V3.77797C1.51114 2.52808 2.52796 1.51126 3.77785 1.51126H17.77C19.0199 1.51126 20.0368 2.52808 20.0368 3.77797V12.4084Z"/>
    <rect x="1" y="1" width="20" height="14" rx="3"/>
    <path d="M17.77 0H3.77785C1.69471 0 0 1.69477 0 3.77791V12.4083C0 14.4915 1.69471 16.1862 3.77785 16.1862L12.6901 16.1863L16.9564 20.4525C17.101 20.5971 17.2942 20.6739 17.4909 20.6739C17.5882 20.6739 17.6864 20.655 17.7798 20.6163C18.0622 20.4993 18.2463 20.224 18.2463 19.9183V16.1563C20.1055 15.9215 21.5479 14.3302 21.5479 12.4083V3.77791C21.5479 1.69477 19.8532 0 17.77 0ZM20.0368 12.4084C20.0368 13.6583 19.0199 14.6751 17.77 14.6751H17.4907C17.0735 14.6751 16.7352 15.0135 16.7352 15.4307L17.4907 14.6751L13.5374 14.8964C13.3957 14.7547 13.2036 14.6751 13.0031 14.6751H3.77785C2.52796 14.6751 1.51114 13.6583 1.51114 12.4084V3.77797C1.51114 2.52808 2.52796 1.51126 3.77785 1.51126H17.77C19.0199 1.51126 20.0368 2.52808 20.0368 3.77797V12.4084Z"/>
    <path d="M16.3346 5.35022H5.2126C4.79535 5.35022 4.45703 5.68847 4.45703 6.10579C4.45703 6.52305 4.79535 6.86136 5.2126 6.86136H16.3346C16.7519 6.86136 17.0902 6.52305 17.0902 6.10579C17.0902 5.68847 16.7519 5.35022 16.3346 5.35022Z" fill="#FFBE17"/>
    <path d="M16.3346 9.58142H5.2126C4.79535 9.58142 4.45703 9.91967 4.45703 10.337C4.45703 10.7543 4.79535 11.0926 5.2126 11.0926H16.3346C16.7519 11.0926 17.0902 10.7542 17.0902 10.337C17.0902 9.91974 16.7519 9.58142 16.3346 9.58142Z" fill="#FFBE17"/>
</svg>
