<svg viewBox="0 0 18 18">
    <path d="M11.7866 14.4788C11.8688 14.4907 11.9015 14.5919 11.8418 14.6497L10.5271 15.922C10.5033 15.945 10.4925 15.9783 10.4981 16.0109L10.8065 17.7961C10.8206 17.8777 10.7351 17.9401 10.6617 17.9018L9.04627 17.0586C9.01728 17.0435 8.98272 17.0435 8.95373 17.0586L7.33831 17.9018C7.2649 17.9401 7.1794 17.8777 7.19349 17.7961L7.50189 16.0109C7.50752 15.9783 7.49666 15.945 7.47289 15.922L6.15818 14.6497C6.09846 14.5919 6.13119 14.4907 6.21344 14.4788L8.03072 14.2167C8.06323 14.212 8.09136 14.1916 8.10598 14.1622L8.91045 12.5439C8.94723 12.4699 9.05277 12.4699 9.08955 12.5439L9.89402 14.1622C9.90864 14.1916 9.93678 14.212 9.96929 14.2167L11.7866 14.4788ZM17.8536 14.6543C17.9133 14.5965 17.8805 14.4954 17.7983 14.4835L15.981 14.2213C15.9485 14.2167 15.9204 14.1963 15.9057 14.1669L15.1013 12.5486C15.0645 12.4746 14.959 12.4746 14.9222 12.5486L14.1177 14.1669C14.1031 14.1963 14.0749 14.2167 14.0424 14.2213L12.2252 14.4835C12.1429 14.4954 12.1102 14.5966 12.1699 14.6543L13.4846 15.9267C13.5084 15.9497 13.5192 15.9829 13.5136 16.0155L13.2052 17.8008C13.1911 17.8824 13.2766 17.9448 13.35 17.9065L14.9655 17.0633C14.9945 17.0481 15.029 17.0481 15.058 17.0633L16.6735 17.9065C16.7469 17.9448 16.8324 17.8824 16.8183 17.8008L16.5099 16.0155C16.5043 15.9829 16.5151 15.9497 16.5389 15.9267L17.8536 14.6543ZM3.95761 14.2011C3.9251 14.1964 3.89696 14.176 3.88234 14.1466L3.07784 12.5271C3.04107 12.4531 2.93549 12.4531 2.89872 12.5271L2.09426 14.1466C2.07964 14.176 2.0515 14.1964 2.01899 14.2011L0.201606 14.4634C0.119382 14.4753 0.0866479 14.5764 0.146327 14.6342L1.4612 15.9076C1.48496 15.9306 1.4958 15.9639 1.49018 15.9964L1.18176 17.7831C1.16767 17.8647 1.2532 17.9271 1.3266 17.8887L2.94202 17.045C2.97103 17.0298 3.00561 17.0298 3.03461 17.045L4.65004 17.8887C4.72344 17.9271 4.80896 17.8647 4.79488 17.7831L4.48646 15.9964C4.48083 15.9639 4.49168 15.9306 4.51543 15.9076L5.83031 14.6342C5.88999 14.5764 5.85725 14.4753 5.77503 14.4634L3.95761 14.2011ZM4.05775 11.4133C4.04162 11.4662 3.98637 11.4972 3.93325 11.4821L2.7729 11.1526C2.71977 11.1375 2.68886 11.0821 2.70478 11.0292C3.10133 9.71228 3.91959 8.52853 5.01711 7.68736C5.43063 7.37044 5.87308 7.10696 6.33758 6.89873C6.40601 6.86805 6.42001 6.77566 6.36454 6.7252C5.58673 6.01754 5.09766 4.99794 5.09766 3.86618C5.09766 1.73437 6.83248 0 8.96484 0C11.0972 0 12.832 1.73437 12.832 3.86618C12.832 4.9764 12.3615 5.97873 11.6093 6.68452C11.5546 6.73585 11.5701 6.82804 11.639 6.85764C12.1318 7.0693 12.6006 7.34259 13.0374 7.67524C14.1314 8.50851 14.9511 9.68266 15.3536 10.9901C15.3699 11.0428 15.3393 11.0984 15.2863 11.1138L14.128 11.4506C14.075 11.466 14.0196 11.4353 14.0031 11.3826C13.3305 9.22833 11.3021 7.73239 9.03516 7.73239C6.75326 7.73239 4.72094 9.24093 4.05775 11.4133ZM6.50391 3.86621C6.50391 5.22282 7.60788 6.3265 8.96484 6.3265C10.3218 6.3265 11.4258 5.22282 11.4258 3.86621C11.4258 2.5096 10.3218 1.40592 8.96484 1.40592C7.60788 1.40592 6.50391 2.5096 6.50391 3.86621Z" />
</svg>