<svg viewBox="0 0 11 11">
    <path fill-rule="evenodd" clip-rule="evenodd" d="M10.3525 1.56913C10.6071 1.31464 10.6071 0.902023 10.3525 0.647533C10.0981 0.393043 9.68547 0.393043 9.43103 0.647533L5.50012 4.57841L1.56926 0.647533C1.31476 0.393043 0.902145 0.393043 0.647655 0.647533C0.393165 0.902023 0.393165 1.31464 0.647655 1.56913L4.57853 5.5L0.647655 9.43087C0.393165 9.68541 0.393165 10.0979 0.647655 10.3525C0.902145 10.6069 1.31476 10.6069 1.56926 10.3525L5.50012 6.4216L9.43103 10.3525C9.68547 10.6069 10.0981 10.6069 10.3525 10.3525C10.6071 10.0979 10.6071 9.68541 10.3525 9.43087L6.42172 5.5L10.3525 1.56913Z"/>
</svg>
