<svg viewBox="0 0 15 15">
    <path fill-rule="evenodd" clip-rule="evenodd" d="M11.7659 0.299277C11.9872 0.0779754
    12.346 0.0779754 12.5672 0.299277L14.8339 2.56594C15.0552 2.78724 15.0552 3.14603 14.8339
    3.36732L10.3656 7.83564C10.2795 7.92177 10.18 7.99345 10.0711 8.04793L5.62 10.2735C5.40184
    10.3826 5.13836 10.3398 4.96589 10.1673C4.79342 9.99485 4.75066 9.73137 4.85974 9.51321L7.08528
    5.06213C7.13976 4.95317 7.21144 4.85371 7.29758 4.76758L11.7659 0.299277ZM12.1666 1.50136L8.09897
    5.56897L6.92228 7.92233L7.21089 8.21093L9.56424 7.03425L13.6319 2.96663L12.1666 1.50136ZM9.33325
    1.26663L8.19991 2.39997H3.55327C3.06787 2.39997 2.7379 2.40041 2.48286 2.42124C2.23442 2.44154
    2.10737 2.47834 2.01875 2.52349C1.8055 2.63215 1.63212 2.80553 1.52346 3.01878C1.47831 3.1074
    1.44152 3.23445 1.42122 3.48289C1.40038 3.73793 1.39994 4.0679 1.39994 4.5533V11.58C1.39994 12.0654
    1.40038 12.3953 1.42122 12.6504C1.44152 12.8988 1.47831 13.0259 1.52346 13.1145C1.63212 13.3278
    1.8055 13.5011 2.01875 13.6098C2.10737 13.655 2.23442 13.6917 2.48286 13.712C2.7379 13.7328 3.06787
    13.7333 3.55327 13.7333H10.5799C11.0653 13.7333 11.3953 13.7328 11.6504 13.712C11.8988 13.6917 12.0258
    13.655 12.1145 13.6098C12.3278 13.5011 12.501 13.3278 12.6097 13.1145C12.655 13.0259 12.6917 12.8988
     12.712 12.6504C12.7328 12.3953 12.7333 12.0654 12.7333 11.58V6.93328L13.8666 5.79994V11.58V11.6034C13.8666 12.0595 13.8666
      12.436 13.8416 12.7427C13.8155 13.0612 13.7597 13.354 13.6195 13.629C13.4023 14.0555 13.0555 14.4023
      12.629 14.6196C12.3539 14.7598 12.0612 14.8155 11.7426 14.8416C11.4359 14.8666 11.0594 14.8666 10.6034
      14.8666H10.5799H3.55327H3.52985C3.07371 14.8666 2.69724 14.8666 2.39057 14.8416C2.07205 14.8155 1.77925
      14.7598 1.50422 14.6196C1.07773 14.4023 0.730963 14.0555 0.513657 13.629C0.373521 13.354 0.31767 13.0612
      0.291649 12.7427C0.266591 12.436 0.266591 12.0595 0.266602 11.6034V11.6033V11.58V4.5533V4.5299V4.52986V4.52985C0.266591
      4.07373 0.266591 3.69727 0.291649 3.3906C0.31767 3.07208 0.373521 2.77928 0.513657 2.50426C0.730963
      2.07775 1.07773 1.73099 1.50422 1.51369C1.77925 1.37355 2.07205 1.3177 2.39057 1.29168C2.69724 1.26662
       3.0737 1.26662 3.52983 1.26663H3.52987H3.55327H9.33325Z"/>
</svg>
