<svg viewBox="0 0 19 19" fill="none" xmlns="http://www.w3.org/2000/svg">
    <path d="M18.4062 2.96955H10.6875V1.1883C10.6875 1.01136 10.6091 0.843925 10.4726 0.731113C10.3372 0.6183 10.1555 0.569613 9.9845 0.605238L0.4845 2.38649C0.203062 2.43874 0 2.68336 0 2.96955V16.0321C0 16.3171 0.203062 16.5629 0.4845 16.6151L9.9845 18.3964C10.0201 18.4035 10.0569 18.4071 10.0938 18.4071C10.2315 18.4071 10.3657 18.3596 10.4726 18.2705C10.6091 18.1577 10.6875 17.9891 10.6875 17.8133V16.0321H18.4062C18.734 16.0321 19 15.7661 19 15.4383V3.5633C19 3.23555 18.734 2.96955 18.4062 2.96955ZM8.16525 11.4851C8.38138 11.7309 8.35644 12.1062 8.10944 12.3223C7.99662 12.4209 7.85769 12.4696 7.71875 12.4696C7.55369 12.4696 7.38981 12.4007 7.27225 12.2665L5.54563 10.2941L4.03156 12.2416C3.914 12.3912 3.73825 12.4696 3.5625 12.4696C3.43544 12.4696 3.30719 12.4292 3.19794 12.3449C2.93906 12.143 2.89275 11.7701 3.09344 11.5112L4.74881 9.38324L3.116 7.51649C2.89988 7.27068 2.92481 6.89543 3.17181 6.6793C3.41762 6.46318 3.79169 6.48693 4.01019 6.73511L5.49219 8.42849L7.25087 6.16749C7.45275 5.9098 7.82562 5.8623 8.0845 6.06418C8.34338 6.26486 8.38969 6.63774 8.18781 6.8978L6.28781 9.3393L8.16525 11.4851ZM17.8125 14.8446H10.6875V13.6571H12.4688C12.7965 13.6571 13.0625 13.3911 13.0625 13.0633C13.0625 12.7356 12.7965 12.4696 12.4688 12.4696H10.6875V11.2821H12.4688C12.7965 11.2821 13.0625 11.0161 13.0625 10.6883C13.0625 10.3606 12.7965 10.0946 12.4688 10.0946H10.6875V8.90705H12.4688C12.7965 8.90705 13.0625 8.64105 13.0625 8.3133C13.0625 7.98555 12.7965 7.71955 12.4688 7.71955H10.6875V6.53205H12.4688C12.7965 6.53205 13.0625 6.26605 13.0625 5.9383C13.0625 5.61055 12.7965 5.34455 12.4688 5.34455H10.6875V4.15705H17.8125V14.8446Z" fill="#FFBE17"/>
</svg>
