<svg viewBox="0 0 21 22">
    <path fill-rule="evenodd" clip-rule="evenodd" d="M1.8002 0.599976C0.916531 0.599976 0.200195 1.31633 0.200195 2.19998V19.8C0.200195 20.6837 0.916547 21.4 1.8002 21.4H13.8002C14.242 21.4 14.6002 21.0417 14.6002 20.6C14.6002 20.1582 14.242 19.8 13.8002 19.8H1.8002V2.19998H13.8002C14.242 2.19998 14.6002 1.8418 14.6002 1.39998C14.6002 0.958152 14.242 0.599976 13.8002 0.599976H1.8002ZM17.166 6.8343C16.8535 6.52186 16.3469 6.52186 16.0344 6.8343C15.7221 7.14671 15.7221 7.65324 16.0344 7.96565L18.2688 10.2H7.4002C6.95837 10.2 6.60019 10.5582 6.60019 11C6.60019 11.4418 6.95837 11.8 7.4002 11.8H18.2688L16.0344 14.0343C15.7221 14.3467 15.7221 14.8532 16.0344 15.1657C16.3469 15.4781 16.8535 15.4781 17.166 15.1657L20.766 11.5657C21.0783 11.2532 21.0783 10.7467 20.766 10.4343L17.166 6.8343Z"/>
</svg>