<svg viewBox="0 0 12 14">
    <path fill-rule="evenodd" clip-rule="evenodd" d="M1.19997 1.66667C1.19997 1.37212 1.43875 1.13333 1.7333 1.13333H7.69148C7.83292 1.13333 7.96858 1.18952 8.0686 1.28955L10.6438 3.8647C10.7438 3.96472 10.8 4.10038 10.8 4.24182V12.3333C10.8 12.6278 10.5611 12.8667 10.2666 12.8667H1.7333C1.43875 12.8667 1.19997 12.6278 1.19997 12.3333V1.66667ZM1.7333 0.0666656C0.849642 0.0666656 0.133301 0.783007 0.133301 1.66667V12.3333C0.133301 13.217 0.849642 13.9333 1.7333 13.9333H10.2666C11.1503 13.9333 11.8666 13.217 11.8666 12.3333V4.24182C11.8666 3.81748 11.6981 3.41052 11.398 3.11045L8.82279 0.535295C8.52278 0.235242 8.11582 0.0666656 7.69148 0.0666656H1.7333ZM2.79997 3.26667C2.50542 3.26667 2.26663 3.50545 2.26663 3.8C2.26663 4.09455 2.50542 4.33333 2.79997 4.33333H5.99997C6.29452 4.33333 6.5333 4.09455 6.5333 3.8C6.5333 3.50545 6.29452 3.26667 5.99997 3.26667H2.79997ZM2.79997 6.46667C2.50542 6.46667 2.26663 6.70545 2.26663 7C2.26663 7.29455 2.50542 7.53333 2.79997 7.53333H9.19997C9.49447 7.53333 9.7333 7.29455 9.7333 7C9.7333 6.70545 9.49447 6.46667 9.19997 6.46667H2.79997ZM2.79997 9.66667C2.50542 9.66667 2.26663 9.90549 2.26663 10.2C2.26663 10.4945 2.50542 10.7333 2.79997 10.7333H9.19997C9.49447 10.7333 9.7333 10.4945 9.7333 10.2C9.7333 9.90549 9.49447 9.66667 9.19997 9.66667H2.79997Z" fill="#FFBE17"/>
</svg>
