<svg width="17" height="17" viewBox="0 0 17 17" fill="none" xmlns="http://www.w3.org/2000/svg">
<path fill-rule="evenodd" clip-rule="evenodd" d="M8.49978 0.993652C4.35439 0.993652 0.993896 4.35415 0.993896 8.49952C0.993896 12.6449 4.35439 16.0055 8.49978 16.0055C12.6452 16.0055 16.0056 12.6449 16.0056 8.49952C16.0056 4.35415 12.6452 0.993652 8.49978 0.993652ZM2.07056 8.49952C2.07056 4.94878 4.94902 2.07032 8.49978 2.07032C12.0505 2.07032 14.9289 4.94878 14.9289 8.49952C14.9289 12.0502 12.0505 14.9288 8.49978 14.9288C4.94902 14.9288 2.07056 12.0502 2.07056 8.49952ZM9.34979 5.09983C9.34979 5.56927 8.96923 5.94983 8.49979 5.94983C8.03035 5.94983 7.64979 5.56927 7.64979 5.09983C7.64979 4.63038 8.03035 4.24983 8.49979 4.24983C8.96923 4.24983 9.34979 4.63038 9.34979 5.09983ZM6.79991 6.79983H7.36658H8.49991C8.81288 6.79983 9.06658 7.05353 9.06658 7.3665V11.3332H9.63325H10.1999V12.4665H9.63325H8.49991H7.36658H6.79991V11.3332H7.36658H7.93325V7.93316H7.36658H6.79991V6.79983Z" fill="#FFAA00"/>
</svg>
