<svg viewBox="0 0 16 15">
    <path fill-rule="evenodd" clip-rule="evenodd" d="M2.15694 7.26967C2.15694 10.7198 4.65843 13.07 7.46742 13.5564C7.78886 13.6121 8.00432 13.9177 7.94866 14.2392C7.893 14.5607 7.58731 14.7761 7.26587 14.7205C3.96598 14.149 0.975586 11.3677 0.975586 7.26967C0.975585 5.5281 1.76792 4.15944 2.69321 3.11827C3.35604 2.37243 4.11435 1.76686 4.72422 1.30295H2.86962C2.55667 1.30295 2.30296 1.04924 2.30296 0.736283C2.30296 0.423325 2.55667 0.169617 2.86962 0.169617H6.26962C6.58258 0.169617 6.83629 0.423325 6.83629 0.736283V4.13628C6.83629 4.44924 6.58258 4.70295 6.26962 4.70295C5.95667 4.70295 5.70296 4.44924 5.70296 4.13628V2.04464L5.70125 2.04593L5.70114 2.04601L5.70113 2.04602H5.70112C5.05346 2.5345 4.26197 3.13142 3.57625 3.90302C2.76646 4.81423 2.15694 5.91507 2.15694 7.26967ZM14.7457 7.7303C14.7457 4.31663 12.2972 1.98021 9.52432 1.45966C9.20369 1.39946 8.99257 1.09076 9.05276 0.770125C9.11295 0.449505 9.42166 0.238387 9.74228 0.298579C12.9998 0.910125 15.9269 3.67618 15.9269 7.7303C15.9269 9.47186 15.1346 10.8405 14.2094 11.8817C13.5465 12.6275 12.7882 13.2331 12.1783 13.6971H14.033C14.3459 13.6971 14.5997 13.9507 14.5997 14.2637C14.5997 14.5766 14.3459 14.8304 14.033 14.8304H10.633C10.32 14.8304 10.0663 14.5766 10.0663 14.2637V10.8637C10.0663 10.5507 10.32 10.297 10.633 10.297C10.9459 10.297 11.1996 10.5507 11.1996 10.8637V12.9553L11.2014 12.9539C11.8491 12.4655 12.6406 11.8685 13.3263 11.097C14.1361 10.1857 14.7457 9.08489 14.7457 7.7303Z"/>
</svg>
