<svg viewBox="0 0 22 19">
    <path fill-rule="evenodd" clip-rule="evenodd" d="M10.3703 0.252744C10.7197 -0.084248 11.2803 -0.084248 11.6297 0.252744L21.7318 9.99485C22.0853 10.3358 22.0899 10.8931 21.7423 11.2397C21.3945 11.5863 20.8259 11.5909 20.4724 11.25L19.2313 10.0532V18.2664C19.2313 18.6715 18.8963 19 18.483 19H3.517C3.10373 19 2.7687 18.6715 2.7687 18.2664V10.0532L1.52768 11.25C1.17413 11.5909 0.605596 11.5863 0.257813 11.2397C-0.0899705 10.8931 -0.0853005 10.3358 0.268244 9.99485L10.3703 0.252744ZM11 2.11515L17.7347 8.60989V17.5328H14.7415V12.3977C14.7415 11.9925 14.4065 11.6641 13.9932 11.6641H9.50341C9.09013 11.6641 8.75511 11.9925 8.75511 12.3977V17.5328H4.2653V8.60989L11 2.11515ZM10.2517 17.5328H13.2449V13.1313H10.2517V17.5328Z"/>
</svg>