<svg viewBox="0 0 20 20">
    <g clip-path="url(#clip0)">
        <path d="M19.3745 8.74949C19.0295 8.74949 18.7495 9.02947 18.7495 9.37445V16.4515L13.7498 18.4514V11.8743C13.7498 11.5293 13.4699 11.2493 13.1249 11.2493C12.7799 11.2493 12.4999 11.5293 12.4999 11.8743V18.4501L7.50023 16.4503V6.54838L10.3963 7.70706C10.7125 7.83455 11.08 7.67956 11.2088 7.35833C11.3375 7.03835 11.1813 6.67462 10.86 6.54588L7.11901 5.04847C7.11901 5.04847 7.11901 5.04847 7.11776 5.04847L7.10776 5.04472C6.95902 4.98473 6.79278 4.98473 6.64404 5.04472L6.63279 5.04847C6.63279 5.04847 6.63279 5.04847 6.63154 5.04847L0.393177 7.54457C0.156942 7.63956 0.000701904 7.8683 0.000701904 8.12453V19.3738C0.000701904 19.5813 0.104445 19.7751 0.275685 19.8913C0.380678 19.9625 0.501921 19.9988 0.625663 19.9988C0.704408 19.9988 0.783153 19.9838 0.858148 19.9538L6.87527 17.5477L12.8811 19.95C12.8811 19.95 12.8811 19.95 12.8824 19.95L12.8936 19.955C13.0424 20.015 13.2086 20.015 13.3574 19.955L13.3686 19.95C13.3686 19.95 13.3686 19.95 13.3699 19.95L19.6082 17.4552C19.8432 17.359 19.9995 17.1302 19.9995 16.874V9.37445C19.9995 9.02947 19.7195 8.74949 19.3745 8.74949ZM6.25031 16.4503L1.25062 18.4501V8.547L6.25031 6.54713V16.4503Z" fill="#FFBE17"/>
        <path d="M15.6246 2.49988C14.591 2.49988 13.7498 3.34108 13.7498 4.37476C13.7498 5.40845 14.591 6.24964 15.6246 6.24964C16.6583 6.24964 17.4995 5.40845 17.4995 4.37476C17.4995 3.34108 16.6583 2.49988 15.6246 2.49988ZM15.6246 4.99972C15.2797 4.99972 14.9997 4.71974 14.9997 4.37476C14.9997 4.02978 15.2797 3.7498 15.6246 3.7498C15.9696 3.7498 16.2496 4.02978 16.2496 4.37476C16.2496 4.71974 15.9696 4.99972 15.6246 4.99972Z" fill="#FFBE17"/>
        <path d="M15.6246 0C13.2123 0 11.2499 1.96238 11.2499 4.37473C11.2499 6.61959 14.7597 10.5956 15.1596 11.0418C15.2784 11.1731 15.4471 11.2493 15.6246 11.2493C15.8021 11.2493 15.9708 11.1731 16.0896 11.0418C16.4896 10.5956 19.9993 6.61959 19.9993 4.37473C19.9993 1.96238 18.037 0 15.6246 0ZM15.6246 9.67065C14.2597 8.052 12.4998 5.56715 12.4998 4.37473C12.4998 2.65233 13.9022 1.24992 15.6246 1.24992C17.347 1.24992 18.7494 2.65233 18.7494 4.37473C18.7494 5.5659 16.9895 8.052 15.6246 9.67065Z" fill="#FFBE17"/>
    </g>
    <defs>
        <clipPath id="clip0">
            <rect width="20" height="20" fill="white"/>
        </clipPath>
    </defs>
</svg>
