<svg viewBox="0 0 22 16">
    <path d="M20.8746 5.51848L20.3536 4.61613C20.2457 4.42934 20.007 4.36531 19.82 4.47316C19.6332 4.58101 19.5692 4.81991 19.6771 5.00674L20.198 5.9091C20.2255 5.95668 20.2194 6.00199 20.2133 6.02476C20.2072 6.04753 20.1898 6.08988 20.1422 6.11734L18.7646 6.9127C18.6917 6.95466 18.5984 6.92962 18.5563 6.85688L15.7849 2.05679C15.7429 1.98398 15.7679 1.89054 15.8408 1.84847L17.2183 1.05314C17.2911 1.01119 17.3847 1.03611 17.4266 1.10892L17.9193 1.96222C18.0272 2.14909 18.2661 2.21311 18.4529 2.10518C18.6397 1.99733 18.7037 1.75844 18.5958 1.5716L18.1032 0.718309C17.8458 0.272501 17.2737 0.119107 16.8278 0.376561L15.4501 1.17193C15.2409 1.29278 15.0961 1.48297 15.0279 1.69687H11.1225C10.5742 1.69687 10.0587 1.91038 9.67097 2.29811L9.27083 2.69825C8.91998 2.61462 8.56053 2.57162 8.19906 2.57162H6.98644C6.92585 2.3376 6.77535 2.12698 6.54997 1.99683L5.17235 1.20146C4.95634 1.07674 4.70463 1.04365 4.46381 1.10818C4.22292 1.17271 4.02156 1.32724 3.89688 1.54321L1.12551 6.34334C1.00083 6.55931 0.967664 6.81095 1.03219 7.05188C1.09672 7.29281 1.25125 7.49413 1.46726 7.61882L2.84488 8.41418C2.99155 8.49887 3.15182 8.5391 3.31014 8.5391C3.36783 8.5391 3.42521 8.53352 3.48162 8.52305L4.60916 9.65063C4.5919 9.73926 4.58295 9.83016 4.58295 9.9225C4.58295 10.2978 4.72912 10.6508 4.99454 10.9161C5.24868 11.1702 5.57671 11.3063 5.9101 11.3247C5.90498 11.3737 5.90221 11.4231 5.90221 11.473C5.90221 11.8484 6.04838 12.2013 6.3138 12.4667C6.57922 12.7321 6.9321 12.8783 7.30745 12.8783C7.31764 12.8783 7.32772 12.8778 7.33787 12.8775C7.33764 12.8877 7.33713 12.8978 7.33713 12.908C7.33713 13.2833 7.4833 13.6362 7.74872 13.9016C8.01414 14.167 8.36702 14.3132 8.74237 14.3132C8.75256 14.3132 8.76264 14.3127 8.77279 14.3125C8.77256 14.3226 8.77205 14.3327 8.77205 14.3429C8.77205 14.7182 8.91822 15.0711 9.18364 15.3365C9.44906 15.6019 9.80194 15.7481 10.1773 15.7481C10.5526 15.7481 10.9055 15.6019 11.1709 15.3365L11.7266 14.7809C11.8895 14.618 12.0036 14.4245 12.0697 14.2189C12.3165 14.4011 12.6099 14.4922 12.9033 14.4922C13.2631 14.4921 13.6231 14.3552 13.897 14.0812C14.0609 13.9173 14.1791 13.72 14.2458 13.5048C14.4719 13.6526 14.736 13.7322 15.0125 13.7322C15.3878 13.7322 15.7408 13.586 16.0061 13.3206C16.2034 13.1233 16.3346 12.8778 16.3891 12.6106C16.5302 12.6573 16.6792 12.682 16.8322 12.682C17.2075 12.682 17.5605 12.5358 17.8259 12.2703C18.3737 11.7224 18.3737 10.8309 17.8259 10.283L16.9142 9.37131L18.5783 7.70717C18.6152 7.71159 18.6525 7.71409 18.6899 7.71409C18.8482 7.71409 19.0085 7.67385 19.1551 7.58921L20.5327 6.79388C20.7487 6.66916 20.9032 6.46783 20.9678 6.2269C21.0324 5.98597 20.9992 5.73446 20.8746 5.51848ZM1.85783 6.94227C1.81026 6.91481 1.79291 6.87251 1.78682 6.8497C1.78073 6.82692 1.77459 6.78161 1.80209 6.734L4.57346 1.93382C4.60092 1.88624 4.64326 1.8689 4.66604 1.86281C4.67576 1.86023 4.68959 1.85761 4.70592 1.85761C4.72791 1.85761 4.75443 1.86234 4.7817 1.87804L6.15931 2.67341C6.23209 2.71544 6.25716 2.80887 6.21513 2.88168L3.44377 7.68182C3.4017 7.75459 3.30834 7.77967 3.23549 7.73764L1.85783 6.94227ZM5.36418 9.92246C5.36418 9.75575 5.4291 9.59907 5.54699 9.48118L5.88409 9.14408C6.00572 9.02241 6.16552 8.96159 6.32536 8.96159C6.48512 8.96159 6.64496 9.02245 6.7666 9.14408C6.88449 9.26197 6.94941 9.41865 6.94941 9.58532C6.94941 9.752 6.88449 9.90871 6.7666 10.0266L6.4295 10.3637C6.18619 10.607 5.7903 10.607 5.54699 10.3637C5.4291 10.2459 5.36418 10.0891 5.36418 9.92246ZM7.30748 12.097C7.14077 12.097 6.98409 12.0321 6.86625 11.9143C6.74836 11.7964 6.68344 11.6397 6.68344 11.473C6.68344 11.3064 6.74836 11.1497 6.86625 11.0318L7.4219 10.4762C7.54353 10.3545 7.70333 10.2937 7.86313 10.2937C8.02297 10.2937 8.18277 10.3545 8.30441 10.4762C8.4223 10.594 8.48722 10.7507 8.48722 10.9174C8.48722 11.0841 8.4223 11.2408 8.30441 11.3586L7.74876 11.9143C7.63087 12.0322 7.47416 12.097 7.30748 12.097ZM8.7424 13.532C8.57569 13.532 8.41901 13.4671 8.30117 13.3492C8.18328 13.2314 8.11836 13.0747 8.11836 12.908C8.11836 12.7413 8.18328 12.5846 8.30117 12.4667L8.85681 11.9111C8.97845 11.7894 9.13825 11.7286 9.29805 11.7286C9.45785 11.7286 9.61769 11.7894 9.73933 11.9111C9.85722 12.029 9.92214 12.1857 9.92214 12.3524C9.92214 12.519 9.85722 12.6757 9.73933 12.7936L9.18368 13.3492C9.06583 13.4671 8.90912 13.532 8.7424 13.532ZM11.1742 14.2285L10.6186 14.7842C10.5007 14.902 10.344 14.967 10.1773 14.967C10.0106 14.967 9.85394 14.902 9.73609 14.7842C9.6182 14.6663 9.55328 14.5096 9.55328 14.343C9.55328 14.1762 9.6182 14.0196 9.73609 13.9017L10.2917 13.346C10.4134 13.2244 10.5732 13.1635 10.733 13.1635C10.8928 13.1635 11.0526 13.2244 11.1742 13.346C11.4176 13.5893 11.4176 13.9852 11.1742 14.2285ZM17.2735 11.718C17.1556 11.8359 16.999 11.9008 16.8323 11.9008C16.6656 11.9008 16.5089 11.8359 16.391 11.718L12.6626 7.98959C12.5101 7.83709 12.2628 7.83705 12.1102 7.98959C11.9576 8.14212 11.9576 8.38946 12.1102 8.54199L15.4538 11.8857C15.5717 12.0035 15.6366 12.1602 15.6366 12.3269C15.6366 12.4936 15.5717 12.6503 15.4538 12.7682C15.336 12.886 15.1793 12.951 15.0126 12.951C14.8459 12.951 14.6892 12.886 14.5713 12.7682L10.5534 8.75031C10.4009 8.59781 10.1536 8.59781 10.001 8.75031C9.84847 8.90284 9.84847 9.15018 10.001 9.30271L13.3447 12.6464C13.4625 12.7643 13.5275 12.921 13.5275 13.0876C13.5275 13.2543 13.4625 13.411 13.3447 13.5289C13.1014 13.7722 12.7055 13.7723 12.4621 13.5289L11.7268 12.7935C11.7258 12.7925 11.7246 12.7916 11.7236 12.7907C11.4423 12.511 11.0712 12.3755 10.7026 12.3834C10.7029 12.3731 10.7034 12.3628 10.7034 12.3524C10.7034 11.977 10.5572 11.6241 10.2918 11.3587C10.0101 11.077 9.63761 10.9406 9.26766 10.9485C9.2679 10.9381 9.2684 10.9278 9.2684 10.9174C9.2684 10.5421 9.12224 10.1892 8.85681 9.92375C8.54878 9.61571 8.13211 9.48091 7.729 9.51923C7.71286 9.16873 7.56877 8.84148 7.31901 8.59172C6.77109 8.0438 5.87956 8.04392 5.33164 8.59172L4.99454 8.92882C4.99415 8.92921 4.99376 8.92964 4.99337 8.93003L4.12597 8.06263L6.84515 3.35284H8.19902C8.33167 3.35284 8.46397 3.35987 8.59553 3.37355L8.14902 3.82006C7.8836 4.08548 7.73743 4.4384 7.73743 4.81374C7.73743 5.18912 7.8836 5.542 8.14902 5.80742C8.423 6.08136 8.78287 6.21835 9.14267 6.21835C9.50254 6.21835 9.86241 6.0814 10.1363 5.80742L11.1909 4.75292L17.2735 10.8355C17.5168 11.0788 17.5168 11.4747 17.2735 11.718ZM13.5206 5.97773C14.089 5.56634 14.4374 4.90245 14.4374 4.18118C14.4374 3.96544 14.2625 3.79057 14.0468 3.79057C13.8311 3.79057 13.6562 3.96544 13.6562 4.18118C13.6562 4.69144 13.3867 5.15685 12.9567 5.41384L11.4689 3.92607C11.3163 3.77353 11.0694 3.76955 10.9168 3.92209L9.58394 5.25498C9.34063 5.49829 8.94474 5.49825 8.70143 5.25498C8.58354 5.13713 8.51862 4.98041 8.51862 4.81374C8.51862 4.64706 8.58354 4.49035 8.70143 4.37246L10.2234 2.85051C10.4635 2.61036 10.7829 2.4781 11.1225 2.4781H15.1261L17.8798 7.24758C17.8863 7.25887 17.8934 7.26961 17.9003 7.28051L16.3618 8.81898L13.5206 5.97773Z" stroke-width="0.2"/>
</svg>