<svg width="13" height="15" viewBox="0 0 13 15" fill="none">
    <path fill-rule="evenodd" clip-rule="evenodd" d="M1.9666 1.26663C1.65364 1.26663 1.39993 1.52034 1.39993 1.8333V13.1666C1.39993 13.4795 1.65364 13.7333 1.9666 13.7333H11.0333C11.3462 13.7333 11.5999 13.4795 11.5999 13.1666V4.33469L8.53188 1.26663H1.9666ZM0.266602 1.8333C0.266602 0.894413 1.02771 0.133301 1.9666 0.133301H8.7666C8.91689 0.133301 9.06103 0.193005 9.16729 0.299277L12.4843 3.61628C12.6437 3.7757 12.7333 3.99189 12.7333 4.21732V13.1666C12.7333 14.1055 11.9721 14.8666 11.0333 14.8666H1.9666C1.02771 14.8666 0.266602 14.1055 0.266602 13.1666V1.8333ZM3.38327 7.49997C3.38327 7.18701 3.63698 6.9333 3.94993 6.9333H5.93327V4.94997C5.93327 4.63701 6.18698 4.3833 6.49993 4.3833C6.81289 4.3833 7.0666 4.63701 7.0666 4.94997V6.9333H9.04993C9.36285 6.9333 9.6166 7.18701 9.6166 7.49997C9.6166 7.81293 9.36285 8.06663 9.04993 8.06663H7.0666V10.05C7.0666 10.3629 6.81289 10.6166 6.49993 10.6166C6.18698 10.6166 5.93327 10.3629 5.93327 10.05V8.06663H3.94993C3.63698 8.06663 3.38327 7.81293 3.38327 7.49997Z" fill="#FFBE17"/>
</svg>
