<svg viewBox="0 0 16 16">
    <path fill-rule="evenodd" clip-rule="evenodd" d="M0.935547 7.9997C0.935547 4.09818 4.09837 0.935352 7.9999 0.935352C11.9014 0.935352 15.0642 4.09818 15.0642 7.9997C15.0642 11.9012 11.9014 15.0641 7.9999 15.0641C4.09837 15.0641 0.935547 11.9012 0.935547 7.9997ZM7.9999 1.94868C4.65802 1.94868 1.94889 4.65783 1.94889 7.9997C1.94889 11.3415 4.65802 14.0508 7.9999 14.0508C11.3418 14.0508 14.0509 11.3415 14.0509 7.9997C14.0509 4.65783 11.3418 1.94868 7.9999 1.94868ZM8.79993 11.2C8.79993 11.6418 8.44175 12 7.99993 12C7.55809 12 7.19993 11.6418 7.19993 11.2C7.19993 10.7582 7.55809 10.4 7.99993 10.4C8.44175 10.4 8.79993 10.7582 8.79993 11.2ZM6.45337 6.66667C6.45337 5.94358 7.07745 5.25333 8.00003 5.25333C8.92262 5.25333 9.5467 5.94358 9.5467 6.66667C9.5467 7.19059 9.25869 7.45826 8.7621 7.75994C8.70668 7.79361 8.64275 7.83073 8.57437 7.87044L8.5743 7.87049C8.37889 7.98397 8.14707 8.1186 7.97279 8.25439C7.71428 8.45581 7.41337 8.78078 7.41337 9.28C7.41338 9.60401 7.67603 9.86667 8.00004 9.86667C8.32256 9.86667 8.5843 9.60641 8.58669 9.28445L8.58726 9.28352C8.59652 9.26891 8.62393 9.23451 8.69395 9.17995C8.80221 9.0956 8.92275 9.02574 9.08338 8.93265L9.08342 8.93262C9.16717 8.88409 9.26182 8.82924 9.3713 8.76273C9.94138 8.41641 10.72 7.84408 10.72 6.66667C10.72 5.25642 9.53078 4.08 8.00003 4.08C6.46929 4.08 5.28003 5.25642 5.28003 6.66667C5.28003 6.99068 5.5427 7.25333 5.8667 7.25333C6.19071 7.25333 6.45337 6.99068 6.45337 6.66667Z" fill="#A7A7A7"/>
</svg>