<svg viewBox="0 0 17 17">
    <path fill-rule="evenodd" clip-rule="evenodd" d="M0.993896 8.49985C0.993896 4.35447 4.35439 0.993973 8.49978 0.993973C12.6452 0.993973 16.0056 4.35447 16.0056 8.49985C16.0056 12.6452 12.6452 16.0057 8.49978 16.0057C4.35439 16.0057 0.993896 12.6452 0.993896 8.49985ZM8.49978 2.07063C4.94902 2.07063 2.07057 4.9491 2.07057 8.49985C2.07057 12.0506 4.94902 14.929 8.49978 14.929C12.0505 14.929 14.9289 12.0506 14.9289 8.49985C14.9289 4.9491 12.0505 2.07063 8.49978 2.07063ZM11.1673 5.83262C11.3885 6.05392 11.3885 6.41272 11.1673 6.63401L9.30129 8.49998L11.1673 10.366C11.3885 10.5872 11.3885 10.9461 11.1673 11.1673C10.946 11.3886 10.5872 11.3886 10.3659 11.1673L8.4999 9.30137L6.63394 11.1673C6.41264 11.3886 6.05384 11.3886 5.83254 11.1673C5.61125 10.9461 5.61125 10.5872 5.83254 10.366L7.69852 8.49998L5.83254 6.63401C5.61125 6.41272 5.61125 6.05392 5.83254 5.83262C6.05384 5.61133 6.41264 5.61133 6.63394 5.83262L8.4999 7.6986L10.3659 5.83262C10.5872 5.61133 10.946 5.61133 11.1673 5.83262Z" fill="#EC3232"/>
</svg>
