<svg viewBox="0 0 18 22">
    <path fill-rule="evenodd" clip-rule="evenodd" d="M2.6002 2.19998C2.15837 2.19998 1.8002 2.55815 1.8002 2.99998V19C1.8002 19.4417 2.15837 19.8 2.6002 19.8H15.4002C15.842 19.8 16.2002 19.4417 16.2002 19V8.59998H10.6002C10.1584 8.59998 9.80019 8.2418 9.80019 7.79998V2.19998H2.6002ZM11.4002 3.33135L15.0688 6.99998H11.4002V3.33135ZM0.200195 2.99998C0.200195 1.67449 1.27471 0.599976 2.6002 0.599976H10.6002C10.8124 0.599976 11.0159 0.684264 11.1659 0.834296L17.566 7.2343C17.7159 7.38431 17.8002 7.5878 17.8002 7.79998V19C17.8002 20.3254 16.7256 21.4 15.4002 21.4H2.6002C1.27471 21.4 0.200195 20.3254 0.200195 19V2.99998Z"/>
</svg>