<svg viewBox="0 0 33 16" class="w-full h-full">
<path class="fill-current" d="M1.28906 6.70968H28.5887L24.0664 2.2049C23.5618 1.70219 23.5599 0.885222 24.0621 0.380125C24.5643 -0.125037 25.3805 -0.126907 25.8851 0.375738L32.6207 7.08542C32.6212 7.08581 32.6215 7.08626 32.6219 7.08664C33.1252 7.58935 33.1268 8.40897 32.622 8.91336C32.6216 8.91374 32.6212 8.91419 32.6209 8.91458L25.8853 15.6243C25.3807 16.1268 24.5645 16.1251 24.0622 15.6199C23.56 15.1148 23.5619 14.2978 24.0665 13.7951L28.5887 9.29032H1.28906C0.57711 9.29032 0 8.71265 0 8C0 7.28735 0.57711 6.70968 1.28906 6.70968Z"/>
</svg>