<svg viewBox="0 0 19 19" fill="none" xmlns="http://www.w3.org/2000/svg">
<path d="M18.4062 2.96955H10.6875V1.1883C10.6875 1.01136 10.6091 0.843925 10.4726 0.731113C10.3372 0.6183 10.1555 0.569613 9.9845 0.605238L0.4845 2.38649C0.203062 2.43874 0 2.68336 0 2.96955V16.0321C0 16.3171 0.203062 16.5629 0.4845 16.6151L9.9845 18.3964C10.0201 18.4035 10.0569 18.4071 10.0938 18.4071C10.2315 18.4071 10.3657 18.3596 10.4726 18.2705C10.6091 18.1577 10.6875 17.9891 10.6875 17.8133V16.0321H18.4062C18.734 16.0321 19 15.7661 19 15.4383V3.5633C19 3.23555 18.734 2.96955 18.4062 2.96955ZM8.30894 7.19111L7.71519 12.5361C7.68431 12.808 7.47056 13.0253 7.19862 13.0586C7.17369 13.0621 7.14994 13.0633 7.125 13.0633C6.88037 13.0633 6.65712 12.9113 6.56925 12.6786L5.34375 9.41055L4.11825 12.6786C4.02325 12.9327 3.77387 13.0882 3.49838 13.0597C3.22881 13.0312 3.01269 12.8222 2.97469 12.5527L2.38094 8.39643C2.33463 8.07224 2.56025 7.7718 2.88444 7.72549C3.20981 7.67799 3.51025 7.9048 3.55656 8.22899L3.82137 10.0862L4.78681 7.51055C4.96019 7.04743 5.72494 7.04743 5.8995 7.51055L6.80913 9.93543L7.12856 7.0593C7.16537 6.73393 7.467 6.50118 7.78406 6.53561C8.11063 6.57243 8.34456 6.86574 8.30894 7.19111ZM17.8125 14.8446H10.6875V13.6571H16.0312C16.359 13.6571 16.625 13.3911 16.625 13.0633C16.625 12.7356 16.359 12.4696 16.0312 12.4696H10.6875V11.2821H16.0312C16.359 11.2821 16.625 11.0161 16.625 10.6883C16.625 10.3606 16.359 10.0946 16.0312 10.0946H10.6875V8.90705H16.0312C16.359 8.90705 16.625 8.64105 16.625 8.3133C16.625 7.98555 16.359 7.71955 16.0312 7.71955H10.6875V6.53205H16.0312C16.359 6.53205 16.625 6.26605 16.625 5.9383C16.625 5.61055 16.359 5.34455 16.0312 5.34455H10.6875V4.15705H17.8125V14.8446Z" fill="#FFBE17"/>
</svg>
